<?xml version="1.0" encoding="utf-8" standalone="no"?>
<!DOCTYPE svg PUBLIC "-//W3C//DTD SVG 1.1//EN"
  "http://www.w3.org/Graphics/SVG/1.1/DTD/svg11.dtd">
<!-- Created with matplotlib (http://matplotlib.org/) -->
<svg height="271pt" version="1.1" viewBox="0 0 386 271" width="386pt" xmlns="http://www.w3.org/2000/svg" xmlns:xlink="http://www.w3.org/1999/xlink">
 <defs>
  <style type="text/css">
*{stroke-linecap:butt;stroke-linejoin:round;stroke-miterlimit:100000;}
  </style>
 </defs>
 <g id="figure_1">
  <g id="patch_1">
   <path d="M 0 271.9725 
L 386.760938 271.9725 
L 386.760938 0 
L 0 0 
z
" style="fill:#ffffff;"/>
  </g>
  <g id="axes_1">
   <g id="patch_2">
    <path d="M 42.8 234 
L 377.6 234 
L 377.6 3.6 
L 42.8 3.6 
z
" style="fill:#ffffff;"/>
   </g>
   <g id="matplotlib.axis_1">
    <g id="xtick_1">
     <g id="line2d_1"/>
     <g id="text_1">
      <!-- 0 -->
      <defs>
       <path d="M 51.703125 34.421875 
Q 51.703125 24.515625 49.828125 17.75 
Q 47.953125 10.984375 44.703125 6.8125 
Q 41.453125 2.640625 37.0625 0.828125 
Q 32.671875 -0.984375 27.6875 -0.984375 
Q 22.65625 -0.984375 18.3125 0.828125 
Q 13.96875 2.640625 10.765625 6.78125 
Q 7.5625 10.9375 5.734375 17.703125 
Q 3.90625 24.46875 3.90625 34.421875 
Q 3.90625 44.828125 5.734375 51.640625 
Q 7.5625 58.453125 10.78125 62.5 
Q 14.015625 66.546875 18.40625 68.1875 
Q 22.796875 69.828125 27.984375 69.828125 
Q 32.90625 69.828125 37.21875 68.1875 
Q 41.546875 66.546875 44.765625 62.5 
Q 48 58.453125 49.84375 51.640625 
Q 51.703125 44.828125 51.703125 34.421875 
M 42.78125 34.421875 
Q 42.78125 42.625 41.796875 48.0625 
Q 40.828125 53.515625 38.921875 56.765625 
Q 37.015625 60.015625 34.25 61.359375 
Q 31.5 62.703125 27.984375 62.703125 
Q 24.265625 62.703125 21.4375 61.328125 
Q 18.609375 59.96875 16.671875 56.71875 
Q 14.75 53.46875 13.765625 48.015625 
Q 12.796875 42.578125 12.796875 34.421875 
Q 12.796875 26.515625 13.796875 21.09375 
Q 14.796875 15.671875 16.71875 12.375 
Q 18.65625 9.078125 21.4375 7.640625 
Q 24.21875 6.203125 27.78125 6.203125 
Q 31.25 6.203125 34.03125 7.640625 
Q 36.8125 9.078125 38.734375 12.375 
Q 40.671875 15.671875 41.71875 21.09375 
Q 42.78125 26.515625 42.78125 34.421875 
" id="LiberationSans-30"/>
      </defs>
      <g style="fill:#262626;" transform="translate(40.01953125 248.246875)scale(0.1 -0.1)">
       <use xlink:href="#LiberationSans-30"/>
      </g>
     </g>
    </g>
    <g id="xtick_2">
     <g id="line2d_2"/>
     <g id="text_2">
      <!-- 1 -->
      <defs>
       <path d="M 7.625 0 
L 7.625 7.46875 
L 25.140625 7.46875 
L 25.140625 60.40625 
L 9.625 49.3125 
L 9.625 57.625 
L 25.875 68.796875 
L 33.984375 68.796875 
L 33.984375 7.46875 
L 50.734375 7.46875 
L 50.734375 0 
z
" id="LiberationSans-31"/>
      </defs>
      <g style="fill:#262626;" transform="translate(57.6405838816 248.246875)scale(0.1 -0.1)">
       <use xlink:href="#LiberationSans-31"/>
      </g>
     </g>
    </g>
    <g id="xtick_3">
     <g id="line2d_3"/>
     <g id="text_3">
      <!-- 2 -->
      <defs>
       <path d="M 5.03125 0 
L 5.03125 6.203125 
Q 7.515625 11.921875 11.109375 16.28125 
Q 14.703125 20.65625 18.65625 24.1875 
Q 22.609375 27.734375 26.484375 30.765625 
Q 30.375 33.796875 33.5 36.8125 
Q 36.625 39.84375 38.546875 43.15625 
Q 40.484375 46.484375 40.484375 50.6875 
Q 40.484375 53.609375 39.59375 55.828125 
Q 38.71875 58.0625 37.0625 59.5625 
Q 35.40625 61.078125 33.078125 61.828125 
Q 30.765625 62.59375 27.9375 62.59375 
Q 25.296875 62.59375 22.96875 61.859375 
Q 20.65625 61.140625 18.84375 59.671875 
Q 17.046875 58.203125 15.890625 56.03125 
Q 14.75 53.859375 14.40625 50.984375 
L 5.421875 51.8125 
Q 5.859375 55.515625 7.46875 58.78125 
Q 9.078125 62.0625 11.90625 64.53125 
Q 14.75 67 18.71875 68.40625 
Q 22.703125 69.828125 27.9375 69.828125 
Q 33.0625 69.828125 37.0625 68.609375 
Q 41.0625 67.390625 43.8125 64.984375 
Q 46.578125 62.59375 48.046875 59.078125 
Q 49.515625 55.5625 49.515625 50.984375 
Q 49.515625 47.515625 48.265625 44.390625 
Q 47.015625 41.265625 44.9375 38.421875 
Q 42.875 35.59375 40.140625 32.953125 
Q 37.40625 30.328125 34.421875 27.8125 
Q 31.453125 25.296875 28.421875 22.828125 
Q 25.390625 20.359375 22.71875 17.859375 
Q 20.0625 15.375 17.96875 12.8125 
Q 15.875 10.25 14.703125 7.46875 
L 50.59375 7.46875 
L 50.59375 0 
z
" id="LiberationSans-32"/>
      </defs>
      <g style="fill:#262626;" transform="translate(75.2616365132 248.246875)scale(0.1 -0.1)">
       <use xlink:href="#LiberationSans-32"/>
      </g>
     </g>
    </g>
    <g id="xtick_4">
     <g id="line2d_4"/>
     <g id="text_4">
      <!-- 3 -->
      <defs>
       <path d="M 51.21875 19 
Q 51.21875 14.265625 49.671875 10.546875 
Q 48.140625 6.84375 45.1875 4.265625 
Q 42.234375 1.703125 37.859375 0.359375 
Q 33.5 -0.984375 27.875 -0.984375 
Q 21.484375 -0.984375 17.109375 0.609375 
Q 12.75 2.203125 9.90625 4.8125 
Q 7.078125 7.421875 5.65625 10.765625 
Q 4.25 14.109375 3.8125 17.671875 
L 12.890625 18.5 
Q 13.28125 15.765625 14.328125 13.515625 
Q 15.375 11.28125 17.1875 9.671875 
Q 19 8.0625 21.625 7.171875 
Q 24.265625 6.296875 27.875 6.296875 
Q 34.515625 6.296875 38.296875 9.5625 
Q 42.09375 12.84375 42.09375 19.28125 
Q 42.09375 23.09375 40.40625 25.40625 
Q 38.71875 27.734375 36.203125 29.03125 
Q 33.6875 30.328125 30.734375 30.765625 
Q 27.78125 31.203125 25.296875 31.203125 
L 20.3125 31.203125 
L 20.3125 38.8125 
L 25.09375 38.8125 
Q 27.59375 38.8125 30.265625 39.328125 
Q 32.953125 39.84375 35.171875 41.1875 
Q 37.40625 42.53125 38.84375 44.828125 
Q 40.28125 47.125 40.28125 50.6875 
Q 40.28125 56.203125 37.03125 59.390625 
Q 33.796875 62.59375 27.390625 62.59375 
Q 21.578125 62.59375 17.984375 59.609375 
Q 14.40625 56.640625 13.8125 51.21875 
L 4.984375 51.90625 
Q 5.515625 56.453125 7.46875 59.8125 
Q 9.421875 63.1875 12.421875 65.40625 
Q 15.4375 67.625 19.28125 68.71875 
Q 23.140625 69.828125 27.484375 69.828125 
Q 33.25 69.828125 37.390625 68.375 
Q 41.546875 66.9375 44.1875 64.46875 
Q 46.828125 62.015625 48.0625 58.6875 
Q 49.3125 55.375 49.3125 51.609375 
Q 49.3125 48.578125 48.484375 45.9375 
Q 47.65625 43.3125 45.890625 41.203125 
Q 44.140625 39.109375 41.421875 37.59375 
Q 38.71875 36.078125 34.90625 35.296875 
L 34.90625 35.109375 
Q 39.0625 34.671875 42.140625 33.21875 
Q 45.21875 31.78125 47.21875 29.625 
Q 49.21875 27.484375 50.21875 24.75 
Q 51.21875 22.015625 51.21875 19 
" id="LiberationSans-33"/>
      </defs>
      <g style="fill:#262626;" transform="translate(92.8826891447 248.246875)scale(0.1 -0.1)">
       <use xlink:href="#LiberationSans-33"/>
      </g>
     </g>
    </g>
    <g id="xtick_5">
     <g id="line2d_5"/>
     <g id="text_5">
      <!-- 4 -->
      <defs>
       <path d="M 43.015625 15.578125 
L 43.015625 0 
L 34.71875 0 
L 34.71875 15.578125 
L 2.296875 15.578125 
L 2.296875 22.40625 
L 33.796875 68.796875 
L 43.015625 68.796875 
L 43.015625 22.515625 
L 52.6875 22.515625 
L 52.6875 15.578125 
z
M 34.71875 58.890625 
Q 34.625 58.640625 34.234375 57.9375 
Q 33.84375 57.234375 33.34375 56.34375 
Q 32.859375 55.46875 32.34375 54.5625 
Q 31.84375 53.65625 31.453125 53.078125 
L 13.8125 27.09375 
Q 13.578125 26.703125 13.109375 26.0625 
Q 12.640625 25.4375 12.15625 24.78125 
Q 11.671875 24.125 11.171875 23.484375 
Q 10.6875 22.859375 10.40625 22.515625 
L 34.71875 22.515625 
z
" id="LiberationSans-34"/>
      </defs>
      <g style="fill:#262626;" transform="translate(110.503741776 248.246875)scale(0.1 -0.1)">
       <use xlink:href="#LiberationSans-34"/>
      </g>
     </g>
    </g>
    <g id="xtick_6">
     <g id="line2d_6"/>
     <g id="text_6">
      <!-- 5 -->
      <defs>
       <path d="M 51.421875 22.40625 
Q 51.421875 17.234375 49.859375 12.9375 
Q 48.296875 8.640625 45.21875 5.53125 
Q 42.140625 2.4375 37.578125 0.71875 
Q 33.015625 -0.984375 27 -0.984375 
Q 21.578125 -0.984375 17.546875 0.28125 
Q 13.53125 1.5625 10.734375 3.78125 
Q 7.953125 6 6.3125 8.984375 
Q 4.6875 11.96875 4 15.375 
L 12.890625 16.40625 
Q 13.421875 14.453125 14.390625 12.625 
Q 15.375 10.796875 17.0625 9.34375 
Q 18.75 7.90625 21.21875 7.046875 
Q 23.6875 6.203125 27.203125 6.203125 
Q 30.609375 6.203125 33.390625 7.25 
Q 36.1875 8.296875 38.15625 10.34375 
Q 40.140625 12.40625 41.203125 15.375 
Q 42.28125 18.359375 42.28125 22.21875 
Q 42.28125 25.390625 41.25 28.046875 
Q 40.234375 30.71875 38.328125 32.640625 
Q 36.421875 34.578125 33.65625 35.640625 
Q 30.90625 36.71875 27.390625 36.71875 
Q 25.203125 36.71875 23.34375 36.328125 
Q 21.484375 35.9375 19.890625 35.25 
Q 18.3125 34.578125 17.015625 33.671875 
Q 15.71875 32.765625 14.59375 31.78125 
L 6 31.78125 
L 8.296875 68.796875 
L 47.40625 68.796875 
L 47.40625 61.328125 
L 16.3125 61.328125 
L 14.984375 39.5 
Q 17.328125 41.3125 20.84375 42.59375 
Q 24.359375 43.890625 29.203125 43.890625 
Q 34.328125 43.890625 38.421875 42.328125 
Q 42.53125 40.765625 45.40625 37.90625 
Q 48.296875 35.0625 49.859375 31.109375 
Q 51.421875 27.15625 51.421875 22.40625 
" id="LiberationSans-35"/>
      </defs>
      <g style="fill:#262626;" transform="translate(128.124794408 248.246875)scale(0.1 -0.1)">
       <use xlink:href="#LiberationSans-35"/>
      </g>
     </g>
    </g>
    <g id="xtick_7">
     <g id="line2d_7"/>
     <g id="text_7">
      <!-- 6 -->
      <defs>
       <path d="M 51.21875 22.515625 
Q 51.21875 17.328125 49.78125 13 
Q 48.34375 8.6875 45.53125 5.578125 
Q 42.71875 2.484375 38.5625 0.75 
Q 34.421875 -0.984375 29 -0.984375 
Q 23 -0.984375 18.5 1.3125 
Q 14.015625 3.609375 11.03125 7.921875 
Q 8.0625 12.25 6.5625 18.53125 
Q 5.078125 24.8125 5.078125 32.8125 
Q 5.078125 42 6.765625 48.921875 
Q 8.453125 55.859375 11.625 60.5 
Q 14.796875 65.140625 19.359375 67.484375 
Q 23.921875 69.828125 29.6875 69.828125 
Q 33.203125 69.828125 36.28125 69.09375 
Q 39.359375 68.359375 41.875 66.71875 
Q 44.390625 65.09375 46.28125 62.40625 
Q 48.1875 59.71875 49.3125 55.8125 
L 40.921875 54.296875 
Q 39.546875 58.734375 36.546875 60.71875 
Q 33.546875 62.703125 29.59375 62.703125 
Q 25.984375 62.703125 23.046875 60.984375 
Q 20.125 59.28125 18.0625 55.875 
Q 16.015625 52.484375 14.90625 47.359375 
Q 13.8125 42.234375 13.8125 35.40625 
Q 16.21875 39.84375 20.5625 42.15625 
Q 24.90625 44.484375 30.515625 44.484375 
Q 35.203125 44.484375 39.015625 42.96875 
Q 42.828125 41.453125 45.53125 38.59375 
Q 48.25 35.75 49.734375 31.671875 
Q 51.21875 27.59375 51.21875 22.515625 
M 42.28125 22.125 
Q 42.28125 25.6875 41.40625 28.5625 
Q 40.53125 31.453125 38.765625 33.46875 
Q 37.015625 35.5 34.421875 36.59375 
Q 31.84375 37.703125 28.421875 37.703125 
Q 26.03125 37.703125 23.578125 36.984375 
Q 21.140625 36.28125 19.15625 34.6875 
Q 17.1875 33.109375 15.9375 30.515625 
Q 14.703125 27.9375 14.703125 24.21875 
Q 14.703125 20.40625 15.671875 17.109375 
Q 16.65625 13.8125 18.484375 11.375 
Q 20.3125 8.9375 22.890625 7.515625 
Q 25.484375 6.109375 28.71875 6.109375 
Q 31.890625 6.109375 34.40625 7.203125 
Q 36.921875 8.296875 38.671875 10.375 
Q 40.4375 12.453125 41.359375 15.421875 
Q 42.28125 18.40625 42.28125 22.125 
" id="LiberationSans-36"/>
      </defs>
      <g style="fill:#262626;" transform="translate(145.745847039 248.246875)scale(0.1 -0.1)">
       <use xlink:href="#LiberationSans-36"/>
      </g>
     </g>
    </g>
    <g id="xtick_8">
     <g id="line2d_8"/>
     <g id="text_8">
      <!-- 7 -->
      <defs>
       <path d="M 50.59375 61.671875 
Q 45.40625 53.765625 41.0625 46.453125 
Q 36.71875 39.15625 33.59375 31.75 
Q 30.46875 24.359375 28.734375 16.578125 
Q 27 8.796875 27 0 
L 17.828125 0 
Q 17.828125 8.25 19.78125 16.1875 
Q 21.734375 24.125 25.046875 31.765625 
Q 28.375 39.40625 32.765625 46.78125 
Q 37.15625 54.15625 42.09375 61.328125 
L 5.125 61.328125 
L 5.125 68.796875 
L 50.59375 68.796875 
z
" id="LiberationSans-37"/>
      </defs>
      <g style="fill:#262626;" transform="translate(163.366899671 248.246875)scale(0.1 -0.1)">
       <use xlink:href="#LiberationSans-37"/>
      </g>
     </g>
    </g>
    <g id="xtick_9">
     <g id="line2d_9"/>
     <g id="text_9">
      <!-- 8 -->
      <defs>
       <path d="M 51.265625 19.1875 
Q 51.265625 14.796875 49.875 11.109375 
Q 48.484375 7.421875 45.625 4.734375 
Q 42.78125 2.046875 38.328125 0.53125 
Q 33.890625 -0.984375 27.828125 -0.984375 
Q 21.78125 -0.984375 17.359375 0.53125 
Q 12.9375 2.046875 10.03125 4.703125 
Q 7.125 7.375 5.734375 11.0625 
Q 4.34375 14.75 4.34375 19.09375 
Q 4.34375 22.859375 5.484375 25.78125 
Q 6.640625 28.71875 8.5625 30.828125 
Q 10.5 32.953125 12.96875 34.25 
Q 15.4375 35.546875 18.0625 35.984375 
L 18.0625 36.1875 
Q 15.1875 36.859375 12.90625 38.375 
Q 10.640625 39.890625 9.09375 42.015625 
Q 7.5625 44.140625 6.75 46.71875 
Q 5.953125 49.3125 5.953125 52.203125 
Q 5.953125 55.8125 7.34375 59 
Q 8.734375 62.203125 11.46875 64.625 
Q 14.203125 67.046875 18.25 68.4375 
Q 22.3125 69.828125 27.640625 69.828125 
Q 33.25 69.828125 37.375 68.40625 
Q 41.5 67 44.203125 64.578125 
Q 46.921875 62.15625 48.234375 58.9375 
Q 49.5625 55.71875 49.5625 52.09375 
Q 49.5625 49.265625 48.75 46.671875 
Q 47.953125 44.09375 46.40625 41.96875 
Q 44.875 39.84375 42.59375 38.34375 
Q 40.328125 36.859375 37.359375 36.28125 
L 37.359375 36.078125 
Q 40.328125 35.59375 42.859375 34.296875 
Q 45.40625 33.015625 47.265625 30.890625 
Q 49.125 28.765625 50.1875 25.828125 
Q 51.265625 22.90625 51.265625 19.1875 
M 40.4375 51.609375 
Q 40.4375 54.203125 39.765625 56.34375 
Q 39.109375 58.5 37.59375 60.03125 
Q 36.078125 61.578125 33.640625 62.421875 
Q 31.203125 63.28125 27.640625 63.28125 
Q 24.171875 63.28125 21.78125 62.421875 
Q 19.390625 61.578125 17.84375 60.03125 
Q 16.3125 58.5 15.625 56.34375 
Q 14.9375 54.203125 14.9375 51.609375 
Q 14.9375 49.5625 15.46875 47.40625 
Q 16.015625 45.265625 17.421875 43.5 
Q 18.84375 41.75 21.328125 40.625 
Q 23.828125 39.5 27.734375 39.5 
Q 31.890625 39.5 34.40625 40.625 
Q 36.921875 41.75 38.25 43.5 
Q 39.59375 45.265625 40.015625 47.40625 
Q 40.4375 49.5625 40.4375 51.609375 
M 42.140625 20.015625 
Q 42.140625 22.515625 41.453125 24.828125 
Q 40.765625 27.15625 39.109375 28.9375 
Q 37.453125 30.71875 34.640625 31.8125 
Q 31.84375 32.90625 27.640625 32.90625 
Q 23.78125 32.90625 21.0625 31.8125 
Q 18.359375 30.71875 16.671875 28.90625 
Q 14.984375 27.09375 14.203125 24.71875 
Q 13.421875 22.359375 13.421875 19.828125 
Q 13.421875 16.65625 14.203125 14.03125 
Q 14.984375 11.421875 16.6875 9.546875 
Q 18.40625 7.671875 21.1875 6.640625 
Q 23.96875 5.609375 27.9375 5.609375 
Q 31.9375 5.609375 34.671875 6.640625 
Q 37.40625 7.671875 39.0625 9.546875 
Q 40.71875 11.421875 41.421875 14.078125 
Q 42.140625 16.75 42.140625 20.015625 
" id="LiberationSans-38"/>
      </defs>
      <g style="fill:#262626;" transform="translate(180.987952303 248.246875)scale(0.1 -0.1)">
       <use xlink:href="#LiberationSans-38"/>
      </g>
     </g>
    </g>
    <g id="xtick_10">
     <g id="line2d_10"/>
     <g id="text_10">
      <!-- 9 -->
      <defs>
       <path d="M 50.875 35.796875 
Q 50.875 26.609375 49.140625 19.703125 
Q 47.40625 12.796875 44.1875 8.203125 
Q 40.96875 3.609375 36.34375 1.3125 
Q 31.734375 -0.984375 25.984375 -0.984375 
Q 22.015625 -0.984375 18.84375 -0.171875 
Q 15.671875 0.640625 13.171875 2.34375 
Q 10.6875 4.046875 8.921875 6.78125 
Q 7.171875 9.515625 6.109375 13.375 
L 14.5 14.703125 
Q 15.875 10.25 18.78125 8.171875 
Q 21.6875 6.109375 26.125 6.109375 
Q 29.6875 6.109375 32.640625 7.78125 
Q 35.59375 9.46875 37.671875 12.84375 
Q 39.75 16.21875 40.921875 21.296875 
Q 42.09375 26.375 42.1875 33.203125 
Q 41.15625 30.90625 39.375 29.09375 
Q 37.59375 27.296875 35.328125 26.046875 
Q 33.0625 24.8125 30.421875 24.140625 
Q 27.78125 23.484375 25.09375 23.484375 
Q 20.40625 23.484375 16.625 25.171875 
Q 12.84375 26.859375 10.203125 29.875 
Q 7.5625 32.90625 6.125 37.171875 
Q 4.6875 41.453125 4.6875 46.6875 
Q 4.6875 52 6.21875 56.296875 
Q 7.765625 60.59375 10.6875 63.59375 
Q 13.625 66.609375 17.890625 68.21875 
Q 22.171875 69.828125 27.59375 69.828125 
Q 39.0625 69.828125 44.96875 61.328125 
Q 50.875 52.828125 50.875 35.796875 
M 41.3125 44.28125 
Q 41.3125 48.09375 40.40625 51.453125 
Q 39.5 54.828125 37.71875 57.3125 
Q 35.9375 59.8125 33.328125 61.25 
Q 30.71875 62.703125 27.296875 62.703125 
Q 24.125 62.703125 21.578125 61.578125 
Q 19.046875 60.453125 17.28125 58.375 
Q 15.53125 56.296875 14.578125 53.3125 
Q 13.625 50.34375 13.625 46.6875 
Q 13.625 43.21875 14.46875 40.234375 
Q 15.328125 37.25 17.03125 35.078125 
Q 18.75 32.90625 21.28125 31.65625 
Q 23.828125 30.421875 27.203125 30.421875 
Q 29.640625 30.421875 32.15625 31.25 
Q 34.671875 32.078125 36.6875 33.78125 
Q 38.71875 35.5 40.015625 38.109375 
Q 41.3125 40.71875 41.3125 44.28125 
" id="LiberationSans-39"/>
      </defs>
      <g style="fill:#262626;" transform="translate(198.609004934 248.246875)scale(0.1 -0.1)">
       <use xlink:href="#LiberationSans-39"/>
      </g>
     </g>
    </g>
    <g id="xtick_11">
     <g id="line2d_11"/>
     <g id="text_11">
      <!-- 10 -->
      <g style="fill:#262626;" transform="translate(213.449588816 248.246875)scale(0.1 -0.1)">
       <use xlink:href="#LiberationSans-31"/>
       <use x="55.615234375" xlink:href="#LiberationSans-30"/>
      </g>
     </g>
    </g>
    <g id="xtick_12">
     <g id="line2d_12"/>
     <g id="text_12">
      <!-- 11 -->
      <g style="fill:#262626;" transform="translate(231.070641447 248.246875)scale(0.1 -0.1)">
       <use xlink:href="#LiberationSans-31"/>
       <use x="55.615234375" xlink:href="#LiberationSans-31"/>
      </g>
     </g>
    </g>
    <g id="xtick_13">
     <g id="line2d_13"/>
     <g id="text_13">
      <!-- 12 -->
      <g style="fill:#262626;" transform="translate(248.691694079 248.246875)scale(0.1 -0.1)">
       <use xlink:href="#LiberationSans-31"/>
       <use x="55.615234375" xlink:href="#LiberationSans-32"/>
      </g>
     </g>
    </g>
    <g id="xtick_14">
     <g id="line2d_14"/>
     <g id="text_14">
      <!-- 13 -->
      <g style="fill:#262626;" transform="translate(266.312746711 248.246875)scale(0.1 -0.1)">
       <use xlink:href="#LiberationSans-31"/>
       <use x="55.615234375" xlink:href="#LiberationSans-33"/>
      </g>
     </g>
    </g>
    <g id="xtick_15">
     <g id="line2d_15"/>
     <g id="text_15">
      <!-- 14 -->
      <g style="fill:#262626;" transform="translate(283.933799342 248.246875)scale(0.1 -0.1)">
       <use xlink:href="#LiberationSans-31"/>
       <use x="55.615234375" xlink:href="#LiberationSans-34"/>
      </g>
     </g>
    </g>
    <g id="xtick_16">
     <g id="line2d_16"/>
     <g id="text_16">
      <!-- 15 -->
      <g style="fill:#262626;" transform="translate(301.554851974 248.246875)scale(0.1 -0.1)">
       <use xlink:href="#LiberationSans-31"/>
       <use x="55.615234375" xlink:href="#LiberationSans-35"/>
      </g>
     </g>
    </g>
    <g id="xtick_17">
     <g id="line2d_17"/>
     <g id="text_17">
      <!-- 16 -->
      <g style="fill:#262626;" transform="translate(319.175904605 248.246875)scale(0.1 -0.1)">
       <use xlink:href="#LiberationSans-31"/>
       <use x="55.615234375" xlink:href="#LiberationSans-36"/>
      </g>
     </g>
    </g>
    <g id="xtick_18">
     <g id="line2d_18"/>
     <g id="text_18">
      <!-- 17 -->
      <g style="fill:#262626;" transform="translate(336.796957237 248.246875)scale(0.1 -0.1)">
       <use xlink:href="#LiberationSans-31"/>
       <use x="55.615234375" xlink:href="#LiberationSans-37"/>
      </g>
     </g>
    </g>
    <g id="xtick_19">
     <g id="line2d_19"/>
     <g id="text_19">
      <!-- 18 -->
      <g style="fill:#262626;" transform="translate(354.418009868 248.246875)scale(0.1 -0.1)">
       <use xlink:href="#LiberationSans-31"/>
       <use x="55.615234375" xlink:href="#LiberationSans-38"/>
      </g>
     </g>
    </g>
    <g id="xtick_20">
     <g id="line2d_20"/>
     <g id="text_20">
      <!-- 19 -->
      <g style="fill:#262626;" transform="translate(372.0390625 248.246875)scale(0.1 -0.1)">
       <use xlink:href="#LiberationSans-31"/>
       <use x="55.615234375" xlink:href="#LiberationSans-39"/>
      </g>
     </g>
    </g>
    <g id="text_21">
     <!-- Level of Distortion -->
     <defs>
      <path d="M 46.390625 14.59375 
Q 46.390625 10.890625 44.9375 7.984375 
Q 43.5 5.078125 40.765625 3.09375 
Q 38.03125 1.125 34.046875 0.0625 
Q 30.078125 -0.984375 24.953125 -0.984375 
Q 20.359375 -0.984375 16.671875 -0.265625 
Q 12.984375 0.4375 10.203125 2 
Q 7.421875 3.5625 5.53125 6.125 
Q 3.65625 8.6875 2.78125 12.40625 
L 10.546875 13.921875 
Q 11.671875 9.671875 15.1875 7.6875 
Q 18.703125 5.71875 24.953125 5.71875 
Q 27.78125 5.71875 30.140625 6.109375 
Q 32.515625 6.5 34.21875 7.453125 
Q 35.9375 8.40625 36.890625 9.984375 
Q 37.84375 11.578125 37.84375 13.921875 
Q 37.84375 16.3125 36.71875 17.84375 
Q 35.59375 19.390625 33.59375 20.40625 
Q 31.59375 21.4375 28.734375 22.1875 
Q 25.875 22.953125 22.46875 23.875 
Q 19.28125 24.703125 16.15625 25.734375 
Q 13.03125 26.765625 10.515625 28.4375 
Q 8.015625 30.125 6.453125 32.609375 
Q 4.890625 35.109375 4.890625 38.875 
Q 4.890625 46.09375 10.03125 49.875 
Q 15.1875 53.65625 25.046875 53.65625 
Q 33.796875 53.65625 38.9375 50.578125 
Q 44.09375 47.515625 45.453125 40.71875 
L 37.546875 39.75 
Q 37.109375 41.796875 35.9375 43.1875 
Q 34.765625 44.578125 33.109375 45.4375 
Q 31.453125 46.296875 29.375 46.65625 
Q 27.296875 47.015625 25.046875 47.015625 
Q 19.09375 47.015625 16.25 45.203125 
Q 13.421875 43.40625 13.421875 39.75 
Q 13.421875 37.59375 14.46875 36.203125 
Q 15.53125 34.8125 17.40625 33.859375 
Q 19.28125 32.90625 21.921875 32.203125 
Q 24.5625 31.5 27.734375 30.71875 
Q 29.828125 30.171875 32.03125 29.5625 
Q 34.234375 28.953125 36.296875 28.09375 
Q 38.375 27.25 40.203125 26.09375 
Q 42.046875 24.953125 43.40625 23.34375 
Q 44.78125 21.734375 45.578125 19.578125 
Q 46.390625 17.4375 46.390625 14.59375 
" id="LiberationSans-73"/>
      <path d="M 13.484375 24.5625 
Q 13.484375 20.40625 14.328125 16.90625 
Q 15.1875 13.421875 16.96875 10.90625 
Q 18.75 8.40625 21.53125 7 
Q 24.3125 5.609375 28.21875 5.609375 
Q 33.9375 5.609375 37.375 7.90625 
Q 40.828125 10.203125 42.046875 13.71875 
L 49.75 11.53125 
Q 48.921875 9.328125 47.4375 7.109375 
Q 45.953125 4.890625 43.453125 3.09375 
Q 40.96875 1.3125 37.234375 0.15625 
Q 33.5 -0.984375 28.21875 -0.984375 
Q 16.5 -0.984375 10.375 6 
Q 4.25 12.984375 4.25 26.765625 
Q 4.25 34.1875 6.09375 39.328125 
Q 7.953125 44.484375 11.171875 47.703125 
Q 14.40625 50.921875 18.703125 52.359375 
Q 23 53.8125 27.875 53.8125 
Q 34.515625 53.8125 38.984375 51.65625 
Q 43.453125 49.515625 46.15625 45.71875 
Q 48.875 41.9375 50.015625 36.8125 
Q 51.171875 31.6875 51.171875 25.734375 
L 51.171875 24.5625 
z
M 42.09375 31.296875 
Q 41.359375 39.65625 37.84375 43.484375 
Q 34.328125 47.3125 27.734375 47.3125 
Q 25.53125 47.3125 23.109375 46.609375 
Q 20.703125 45.90625 18.65625 44.09375 
Q 16.609375 42.28125 15.1875 39.171875 
Q 13.765625 36.078125 13.578125 31.296875 
z
" id="LiberationSans-65"/>
      <path d="M 17.625 46.4375 
L 17.625 0 
L 8.84375 0 
L 8.84375 46.4375 
L 1.421875 46.4375 
L 1.421875 52.828125 
L 8.84375 52.828125 
L 8.84375 58.796875 
Q 8.84375 61.671875 9.375 64.140625 
Q 9.90625 66.609375 11.34375 68.4375 
Q 12.796875 70.265625 15.28125 71.3125 
Q 17.78125 72.359375 21.734375 72.359375 
Q 23.296875 72.359375 24.96875 72.21875 
Q 26.65625 72.078125 27.9375 71.78125 
L 27.9375 65.09375 
Q 27.09375 65.234375 26 65.359375 
Q 24.90625 65.484375 24.03125 65.484375 
Q 22.078125 65.484375 20.828125 64.9375 
Q 19.578125 64.40625 18.875 63.40625 
Q 18.171875 62.40625 17.890625 60.9375 
Q 17.625 59.46875 17.625 57.5625 
L 17.625 52.828125 
L 27.9375 52.828125 
L 27.9375 46.4375 
z
" id="LiberationSans-66"/>
      <path d="M 6.9375 0 
L 6.9375 40.53125 
Q 6.9375 42.1875 6.90625 43.921875 
Q 6.890625 45.65625 6.828125 47.265625 
Q 6.78125 48.875 6.734375 50.28125 
Q 6.6875 51.703125 6.640625 52.828125 
L 14.9375 52.828125 
Q 14.984375 51.703125 15.0625 50.265625 
Q 15.140625 48.828125 15.203125 47.3125 
Q 15.28125 45.796875 15.296875 44.40625 
Q 15.328125 43.015625 15.328125 42.046875 
L 15.53125 42.046875 
Q 16.453125 45.0625 17.5 47.28125 
Q 18.5625 49.515625 19.96875 50.953125 
Q 21.390625 52.390625 23.34375 53.09375 
Q 25.296875 53.8125 28.078125 53.8125 
Q 29.15625 53.8125 30.125 53.640625 
Q 31.109375 53.46875 31.640625 53.328125 
L 31.640625 45.265625 
Q 30.765625 45.515625 29.59375 45.625 
Q 28.421875 45.75 26.953125 45.75 
Q 23.921875 45.75 21.796875 44.375 
Q 19.671875 43.015625 18.328125 40.59375 
Q 17 38.1875 16.359375 34.84375 
Q 15.71875 31.5 15.71875 27.546875 
L 15.71875 0 
z
" id="LiberationSans-72"/>
      <path d="M 29.9375 0 
L 19.53125 0 
L 0.34375 52.828125 
L 9.71875 52.828125 
L 21.34375 18.453125 
Q 21.6875 17.390625 22.140625 15.84375 
Q 22.609375 14.3125 23.09375 12.640625 
Q 23.578125 10.984375 24 9.4375 
Q 24.421875 7.90625 24.703125 6.890625 
Q 25 7.90625 25.453125 9.4375 
Q 25.921875 10.984375 26.40625 12.59375 
Q 26.90625 14.203125 27.421875 15.734375 
Q 27.9375 17.28125 28.328125 18.359375 
L 40.328125 52.828125 
L 49.65625 52.828125 
z
" id="LiberationSans-76"/>
      <path d="M 27.046875 0.390625 
Q 25.046875 -0.140625 22.96875 -0.453125 
Q 20.90625 -0.78125 18.171875 -0.78125 
Q 7.625 -0.78125 7.625 11.1875 
L 7.625 46.4375 
L 1.515625 46.4375 
L 1.515625 52.828125 
L 7.953125 52.828125 
L 10.546875 64.65625 
L 16.40625 64.65625 
L 16.40625 52.828125 
L 26.171875 52.828125 
L 26.171875 46.4375 
L 16.40625 46.4375 
L 16.40625 13.09375 
Q 16.40625 9.28125 17.640625 7.734375 
Q 18.890625 6.203125 21.96875 6.203125 
Q 23.25 6.203125 24.4375 6.390625 
Q 25.640625 6.59375 27.046875 6.890625 
z
" id="LiberationSans-74"/>
      <path d="M 8.203125 0 
L 8.203125 68.796875 
L 17.53125 68.796875 
L 17.53125 7.625 
L 52.296875 7.625 
L 52.296875 0 
z
" id="LiberationSans-4c"/>
      <path d="M 6.6875 64.0625 
L 6.6875 72.46875 
L 15.484375 72.46875 
L 15.484375 64.0625 
z
M 6.6875 0 
L 6.6875 52.828125 
L 15.484375 52.828125 
L 15.484375 0 
z
" id="LiberationSans-69"/>
      <path d="M 40.28125 0 
L 40.28125 33.5 
Q 40.28125 37.359375 39.71875 39.9375 
Q 39.15625 42.53125 37.890625 44.109375 
Q 36.625 45.703125 34.546875 46.359375 
Q 32.46875 47.015625 29.390625 47.015625 
Q 26.265625 47.015625 23.75 45.921875 
Q 21.234375 44.828125 19.453125 42.75 
Q 17.671875 40.671875 16.6875 37.625 
Q 15.71875 34.578125 15.71875 30.609375 
L 15.71875 0 
L 6.9375 0 
L 6.9375 41.546875 
Q 6.9375 43.21875 6.90625 45.046875 
Q 6.890625 46.875 6.828125 48.5 
Q 6.78125 50.140625 6.734375 51.3125 
Q 6.6875 52.484375 6.640625 52.828125 
L 14.9375 52.828125 
Q 14.984375 52.59375 15.03125 51.515625 
Q 15.09375 50.4375 15.15625 49.046875 
Q 15.234375 47.65625 15.28125 46.21875 
Q 15.328125 44.78125 15.328125 43.796875 
L 15.484375 43.796875 
Q 16.75 46.09375 18.265625 47.953125 
Q 19.78125 49.8125 21.78125 51.09375 
Q 23.78125 52.390625 26.359375 53.09375 
Q 28.953125 53.8125 32.375 53.8125 
Q 36.765625 53.8125 39.9375 52.734375 
Q 43.109375 51.65625 45.15625 49.40625 
Q 47.21875 47.171875 48.171875 43.625 
Q 49.125 40.09375 49.125 35.203125 
L 49.125 0 
z
" id="LiberationSans-6e"/>
      <path d="M 51.421875 26.46875 
Q 51.421875 12.59375 45.3125 5.796875 
Q 39.203125 -0.984375 27.59375 -0.984375 
Q 22.078125 -0.984375 17.71875 0.671875 
Q 13.375 2.34375 10.375 5.765625 
Q 7.375 9.1875 5.78125 14.328125 
Q 4.203125 19.484375 4.203125 26.46875 
Q 4.203125 53.8125 27.875 53.8125 
Q 34.03125 53.8125 38.5 52.09375 
Q 42.96875 50.390625 45.828125 46.96875 
Q 48.6875 43.5625 50.046875 38.421875 
Q 51.421875 33.296875 51.421875 26.46875 
M 42.1875 26.46875 
Q 42.1875 32.625 41.234375 36.625 
Q 40.28125 40.625 38.453125 43.015625 
Q 36.625 45.40625 33.984375 46.359375 
Q 31.34375 47.3125 28.03125 47.3125 
Q 24.65625 47.3125 21.9375 46.3125 
Q 19.234375 45.3125 17.328125 42.890625 
Q 15.4375 40.484375 14.421875 36.46875 
Q 13.421875 32.46875 13.421875 26.46875 
Q 13.421875 20.3125 14.5 16.28125 
Q 15.578125 12.25 17.453125 9.859375 
Q 19.34375 7.46875 21.90625 6.484375 
Q 24.46875 5.515625 27.484375 5.515625 
Q 30.859375 5.515625 33.59375 6.46875 
Q 36.328125 7.421875 38.234375 9.8125 
Q 40.140625 12.203125 41.15625 16.25 
Q 42.1875 20.3125 42.1875 26.46875 
" id="LiberationSans-6f"/>
      <path d="M 6.734375 0 
L 6.734375 72.46875 
L 15.53125 72.46875 
L 15.53125 0 
z
" id="LiberationSans-6c"/>
      <path id="LiberationSans-20"/>
      <path d="M 67.4375 35.109375 
Q 67.4375 26.515625 64.84375 19.9375 
Q 62.25 13.375 57.75 8.953125 
Q 53.265625 4.546875 47.140625 2.265625 
Q 41.015625 0 33.9375 0 
L 8.203125 0 
L 8.203125 68.796875 
L 30.953125 68.796875 
Q 38.921875 68.796875 45.625 66.8125 
Q 52.34375 64.84375 57.171875 60.71875 
Q 62.015625 56.59375 64.71875 50.234375 
Q 67.4375 43.890625 67.4375 35.109375 
M 58.0625 35.109375 
Q 58.0625 42.09375 56.046875 47.046875 
Q 54.046875 52 50.4375 55.171875 
Q 46.828125 58.34375 41.796875 59.828125 
Q 36.765625 61.328125 30.765625 61.328125 
L 17.53125 61.328125 
L 17.53125 7.46875 
L 32.859375 7.46875 
Q 38.28125 7.46875 42.890625 9.21875 
Q 47.515625 10.984375 50.875 14.453125 
Q 54.25 17.921875 56.15625 23.09375 
Q 58.0625 28.265625 58.0625 35.109375 
" id="LiberationSans-44"/>
     </defs>
     <g style="fill:#262626;" transform="translate(154.1759375 265.4675)scale(0.14 -0.14)">
      <use xlink:href="#LiberationSans-4c"/>
      <use x="55.615234375" xlink:href="#LiberationSans-65"/>
      <use x="111.23046875" xlink:href="#LiberationSans-76"/>
      <use x="161.23046875" xlink:href="#LiberationSans-65"/>
      <use x="216.845703125" xlink:href="#LiberationSans-6c"/>
      <use x="239.0625" xlink:href="#LiberationSans-20"/>
      <use x="266.845703125" xlink:href="#LiberationSans-6f"/>
      <use x="322.4609375" xlink:href="#LiberationSans-66"/>
      <use x="350.244140625" xlink:href="#LiberationSans-20"/>
      <use x="378.02734375" xlink:href="#LiberationSans-44"/>
      <use x="450.244140625" xlink:href="#LiberationSans-69"/>
      <use x="472.4609375" xlink:href="#LiberationSans-73"/>
      <use x="522.4609375" xlink:href="#LiberationSans-74"/>
      <use x="550.244140625" xlink:href="#LiberationSans-6f"/>
      <use x="605.859375" xlink:href="#LiberationSans-72"/>
      <use x="639.16015625" xlink:href="#LiberationSans-74"/>
      <use x="666.943359375" xlink:href="#LiberationSans-69"/>
      <use x="689.16015625" xlink:href="#LiberationSans-6f"/>
      <use x="744.775390625" xlink:href="#LiberationSans-6e"/>
     </g>
    </g>
   </g>
   <g id="matplotlib.axis_2">
    <g id="ytick_1">
     <g id="line2d_21"/>
     <g id="text_22">
      <!-- 0.0 -->
      <defs>
       <path d="M 9.125 0 
L 9.125 10.6875 
L 18.65625 10.6875 
L 18.65625 0 
z
" id="LiberationSans-2e"/>
      </defs>
      <g style="fill:#262626;" transform="translate(21.9 236.5859375)scale(0.1 -0.1)">
       <use xlink:href="#LiberationSans-30"/>
       <use x="55.615234375" xlink:href="#LiberationSans-2e"/>
       <use x="83.3984375" xlink:href="#LiberationSans-30"/>
      </g>
     </g>
    </g>
    <g id="ytick_2">
     <g id="line2d_22"/>
     <g id="text_23">
      <!-- 0.2 -->
      <g style="fill:#262626;" transform="translate(21.9 192.700223214)scale(0.1 -0.1)">
       <use xlink:href="#LiberationSans-30"/>
       <use x="55.615234375" xlink:href="#LiberationSans-2e"/>
       <use x="83.3984375" xlink:href="#LiberationSans-32"/>
      </g>
     </g>
    </g>
    <g id="ytick_3">
     <g id="line2d_23"/>
     <g id="text_24">
      <!-- 0.4 -->
      <g style="fill:#262626;" transform="translate(21.9 148.814508929)scale(0.1 -0.1)">
       <use xlink:href="#LiberationSans-30"/>
       <use x="55.615234375" xlink:href="#LiberationSans-2e"/>
       <use x="83.3984375" xlink:href="#LiberationSans-34"/>
      </g>
     </g>
    </g>
    <g id="ytick_4">
     <g id="line2d_24"/>
     <g id="text_25">
      <!-- 0.6 -->
      <g style="fill:#262626;" transform="translate(21.9 104.928794643)scale(0.1 -0.1)">
       <use xlink:href="#LiberationSans-30"/>
       <use x="55.615234375" xlink:href="#LiberationSans-2e"/>
       <use x="83.3984375" xlink:href="#LiberationSans-36"/>
      </g>
     </g>
    </g>
    <g id="ytick_5">
     <g id="line2d_25"/>
     <g id="text_26">
      <!-- 0.8 -->
      <g style="fill:#262626;" transform="translate(21.9 61.0430803571)scale(0.1 -0.1)">
       <use xlink:href="#LiberationSans-30"/>
       <use x="55.615234375" xlink:href="#LiberationSans-2e"/>
       <use x="83.3984375" xlink:href="#LiberationSans-38"/>
      </g>
     </g>
    </g>
    <g id="ytick_6">
     <g id="line2d_26"/>
     <g id="text_27">
      <!-- 1.0 -->
      <g style="fill:#262626;" transform="translate(21.9 17.1573660714)scale(0.1 -0.1)">
       <use xlink:href="#LiberationSans-31"/>
       <use x="55.615234375" xlink:href="#LiberationSans-2e"/>
       <use x="83.3984375" xlink:href="#LiberationSans-30"/>
      </g>
     </g>
    </g>
    <g id="text_28">
     <!-- Pearson Correlation Coefficient $\rho$  -->
     <defs>
      <path d="M 2.78125 -18.796875 
Q 2.78125 -18.21875 2.875 -18.015625 
L 12.796875 21.921875 
Q 14.203125 27.296875 17.640625 32.4375 
Q 21.09375 37.59375 25.96875 40.890625 
Q 30.859375 44.1875 36.28125 44.1875 
Q 40.625 44.1875 43.875 41.921875 
Q 47.125 39.65625 48.75 35.96875 
Q 50.390625 32.28125 50.390625 27.875 
Q 50.390625 23.046875 48.40625 17.875 
Q 46.4375 12.703125 42.9375 8.40625 
Q 39.453125 4.109375 34.90625 1.484375 
Q 30.375 -1.125 25.390625 -1.125 
Q 22.46875 -1.125 19.875 0.609375 
Q 17.28125 2.34375 15.828125 5.171875 
L 9.90625 -18.40625 
Q 9.625 -19.828125 8.453125 -20.703125 
Q 7.28125 -21.578125 5.8125 -21.578125 
Q 4.59375 -21.578125 3.6875 -20.8125 
Q 2.78125 -20.0625 2.78125 -18.796875 
M 25.59375 1.515625 
Q 30.90625 1.515625 34.828125 6.953125 
Q 38.765625 12.40625 40.84375 19.75 
Q 42.921875 27.09375 42.921875 32.171875 
Q 42.921875 35.984375 41.25 38.796875 
Q 39.59375 41.609375 36.078125 41.609375 
Q 31.734375 41.609375 28.40625 38.3125 
Q 25.09375 35.015625 23.09375 30.5625 
Q 21.09375 26.125 19.828125 21.296875 
L 17.09375 10.109375 
Q 17.71875 6.5 19.9375 4 
Q 22.171875 1.515625 25.59375 1.515625 
" id="Cmmi10-bd"/>
      <path d="M 13.421875 26.65625 
Q 13.421875 22.125 14.078125 18.3125 
Q 14.75 14.5 16.3125 11.734375 
Q 17.875 8.984375 20.4375 7.46875 
Q 23 5.953125 26.765625 5.953125 
Q 31.453125 5.953125 34.59375 8.484375 
Q 37.75 11.03125 38.484375 16.3125 
L 47.359375 15.71875 
Q 46.921875 12.453125 45.453125 9.421875 
Q 44 6.390625 41.484375 4.09375 
Q 38.96875 1.8125 35.34375 0.40625 
Q 31.734375 -0.984375 27 -0.984375 
Q 20.796875 -0.984375 16.453125 1.109375 
Q 12.109375 3.21875 9.390625 6.90625 
Q 6.6875 10.59375 5.46875 15.59375 
Q 4.25 20.609375 4.25 26.46875 
Q 4.25 31.78125 5.125 35.859375 
Q 6 39.9375 7.59375 42.984375 
Q 9.1875 46.046875 11.328125 48.125 
Q 13.484375 50.203125 15.984375 51.4375 
Q 18.5 52.6875 21.28125 53.25 
Q 24.078125 53.8125 26.90625 53.8125 
Q 31.34375 53.8125 34.8125 52.59375 
Q 38.28125 51.375 40.796875 49.25 
Q 43.3125 47.125 44.875 44.234375 
Q 46.4375 41.359375 47.078125 38.03125 
L 38.03125 37.359375 
Q 37.359375 41.75 34.5625 44.328125 
Q 31.78125 46.921875 26.65625 46.921875 
Q 22.90625 46.921875 20.390625 45.671875 
Q 17.875 44.4375 16.3125 41.921875 
Q 14.75 39.40625 14.078125 35.59375 
Q 13.421875 31.78125 13.421875 26.65625 
" id="LiberationSans-63"/>
      <path d="M 61.421875 48.09375 
Q 61.421875 43.609375 59.9375 39.71875 
Q 58.453125 35.84375 55.5 32.984375 
Q 52.546875 30.125 48.09375 28.46875 
Q 43.65625 26.8125 37.75 26.8125 
L 17.53125 26.8125 
L 17.53125 0 
L 8.203125 0 
L 8.203125 68.796875 
L 37.15625 68.796875 
Q 43.265625 68.796875 47.796875 67.3125 
Q 52.34375 65.828125 55.375 63.109375 
Q 58.40625 60.40625 59.90625 56.5625 
Q 61.421875 52.734375 61.421875 48.09375 
M 52.046875 48 
Q 52.046875 54.546875 48.046875 57.9375 
Q 44.046875 61.328125 36.03125 61.328125 
L 17.53125 61.328125 
L 17.53125 34.1875 
L 36.421875 34.1875 
Q 44.484375 34.1875 48.265625 37.75 
Q 52.046875 41.3125 52.046875 48 
" id="LiberationSans-50"/>
      <path d="M 38.671875 62.203125 
Q 32.8125 62.203125 28.296875 60.25 
Q 23.78125 58.296875 20.71875 54.6875 
Q 17.671875 51.078125 16.109375 46 
Q 14.546875 40.921875 14.546875 34.71875 
Q 14.546875 28.515625 16.234375 23.359375 
Q 17.921875 18.21875 21.0625 14.5 
Q 24.21875 10.796875 28.78125 8.734375 
Q 33.34375 6.6875 39.0625 6.6875 
Q 43.0625 6.6875 46.359375 7.734375 
Q 49.65625 8.796875 52.3125 10.6875 
Q 54.984375 12.59375 57.078125 15.203125 
Q 59.1875 17.828125 60.796875 21 
L 68.40625 17.1875 
Q 66.546875 13.328125 63.8125 10 
Q 61.078125 6.6875 57.390625 4.25 
Q 53.71875 1.8125 49.046875 0.40625 
Q 44.390625 -0.984375 38.625 -0.984375 
Q 30.28125 -0.984375 24 1.671875 
Q 17.71875 4.34375 13.5 9.109375 
Q 9.28125 13.875 7.171875 20.40625 
Q 5.078125 26.953125 5.078125 34.71875 
Q 5.078125 42.78125 7.296875 49.265625 
Q 9.515625 55.765625 13.78125 60.328125 
Q 18.0625 64.890625 24.3125 67.359375 
Q 30.5625 69.828125 38.578125 69.828125 
Q 49.5625 69.828125 56.9375 65.53125 
Q 64.3125 61.234375 67.78125 52.78125 
L 58.9375 49.859375 
Q 57.953125 52.296875 56.296875 54.515625 
Q 54.640625 56.734375 52.140625 58.4375 
Q 49.65625 60.15625 46.3125 61.171875 
Q 42.96875 62.203125 38.671875 62.203125 
" id="LiberationSans-43"/>
      <path d="M 20.21875 -0.984375 
Q 12.25 -0.984375 8.25 3.21875 
Q 4.25 7.421875 4.25 14.75 
Q 4.25 19.96875 6.21875 23.3125 
Q 8.203125 26.65625 11.390625 28.5625 
Q 14.59375 30.46875 18.6875 31.203125 
Q 22.796875 31.9375 27.046875 32.03125 
L 38.921875 32.234375 
L 38.921875 35.109375 
Q 38.921875 38.375 38.234375 40.671875 
Q 37.546875 42.96875 36.125 44.375 
Q 34.71875 45.796875 32.59375 46.453125 
Q 30.46875 47.125 27.59375 47.125 
Q 25.046875 47.125 23 46.75 
Q 20.953125 46.390625 19.4375 45.4375 
Q 17.921875 44.484375 16.984375 42.84375 
Q 16.0625 41.21875 15.765625 38.71875 
L 6.59375 39.546875 
Q 7.078125 42.671875 8.4375 45.28125 
Q 9.8125 47.90625 12.328125 49.796875 
Q 14.84375 51.703125 18.625 52.75 
Q 22.40625 53.8125 27.78125 53.8125 
Q 37.75 53.8125 42.765625 49.234375 
Q 47.796875 44.671875 47.796875 36.03125 
L 47.796875 13.28125 
Q 47.796875 9.375 48.828125 7.390625 
Q 49.859375 5.421875 52.734375 5.421875 
Q 53.46875 5.421875 54.203125 5.515625 
Q 54.9375 5.609375 55.609375 5.765625 
L 55.609375 0.296875 
Q 53.953125 -0.09375 52.3125 -0.28125 
Q 50.6875 -0.484375 48.828125 -0.484375 
Q 46.34375 -0.484375 44.5625 0.171875 
Q 42.78125 0.828125 41.65625 2.171875 
Q 40.53125 3.515625 39.9375 5.484375 
Q 39.359375 7.46875 39.203125 10.109375 
L 38.921875 10.109375 
Q 37.5 7.5625 35.8125 5.515625 
Q 34.125 3.46875 31.875 2.03125 
Q 29.640625 0.59375 26.78125 -0.1875 
Q 23.921875 -0.984375 20.21875 -0.984375 
M 22.21875 5.609375 
Q 26.421875 5.609375 29.5625 7.140625 
Q 32.71875 8.6875 34.78125 11.078125 
Q 36.859375 13.484375 37.890625 16.3125 
Q 38.921875 19.140625 38.921875 21.734375 
L 38.921875 26.078125 
L 29.296875 25.875 
Q 26.078125 25.828125 23.171875 25.40625 
Q 20.265625 25 18.0625 23.78125 
Q 15.875 22.5625 14.578125 20.359375 
Q 13.28125 18.171875 13.28125 14.59375 
Q 13.28125 10.296875 15.59375 7.953125 
Q 17.921875 5.609375 22.21875 5.609375 
" id="LiberationSans-61"/>
     </defs>
     <g style="fill:#262626;" transform="translate(13.82 223.59)rotate(-90.0)scale(0.14 -0.14)">
      <use transform="translate(0.0 0.53125)" xlink:href="#LiberationSans-50"/>
      <use transform="translate(66.69921875 0.53125)" xlink:href="#LiberationSans-65"/>
      <use transform="translate(122.314453125 0.53125)" xlink:href="#LiberationSans-61"/>
      <use transform="translate(177.9296875 0.53125)" xlink:href="#LiberationSans-72"/>
      <use transform="translate(211.23046875 0.53125)" xlink:href="#LiberationSans-73"/>
      <use transform="translate(261.23046875 0.53125)" xlink:href="#LiberationSans-6f"/>
      <use transform="translate(316.845703125 0.53125)" xlink:href="#LiberationSans-6e"/>
      <use transform="translate(372.4609375 0.53125)" xlink:href="#LiberationSans-20"/>
      <use transform="translate(400.244140625 0.53125)" xlink:href="#LiberationSans-43"/>
      <use transform="translate(472.4609375 0.53125)" xlink:href="#LiberationSans-6f"/>
      <use transform="translate(528.076171875 0.53125)" xlink:href="#LiberationSans-72"/>
      <use transform="translate(561.376953125 0.53125)" xlink:href="#LiberationSans-72"/>
      <use transform="translate(594.677734375 0.53125)" xlink:href="#LiberationSans-65"/>
      <use transform="translate(650.29296875 0.53125)" xlink:href="#LiberationSans-6c"/>
      <use transform="translate(672.509765625 0.53125)" xlink:href="#LiberationSans-61"/>
      <use transform="translate(728.125 0.53125)" xlink:href="#LiberationSans-74"/>
      <use transform="translate(755.908203125 0.53125)" xlink:href="#LiberationSans-69"/>
      <use transform="translate(778.125 0.53125)" xlink:href="#LiberationSans-6f"/>
      <use transform="translate(833.740234375 0.53125)" xlink:href="#LiberationSans-6e"/>
      <use transform="translate(889.35546875 0.53125)" xlink:href="#LiberationSans-20"/>
      <use transform="translate(917.138671875 0.53125)" xlink:href="#LiberationSans-43"/>
      <use transform="translate(989.35546875 0.53125)" xlink:href="#LiberationSans-6f"/>
      <use transform="translate(1044.97070312 0.53125)" xlink:href="#LiberationSans-65"/>
      <use transform="translate(1100.5859375 0.53125)" xlink:href="#LiberationSans-66"/>
      <use transform="translate(1128.36914062 0.53125)" xlink:href="#LiberationSans-66"/>
      <use transform="translate(1156.15234375 0.53125)" xlink:href="#LiberationSans-69"/>
      <use transform="translate(1178.36914062 0.53125)" xlink:href="#LiberationSans-63"/>
      <use transform="translate(1228.36914062 0.53125)" xlink:href="#LiberationSans-69"/>
      <use transform="translate(1250.5859375 0.53125)" xlink:href="#LiberationSans-65"/>
      <use transform="translate(1306.20117188 0.53125)" xlink:href="#LiberationSans-6e"/>
      <use transform="translate(1361.81640625 0.53125)" xlink:href="#LiberationSans-74"/>
      <use transform="translate(1389.59960938 0.53125)" xlink:href="#LiberationSans-20"/>
      <use transform="translate(1417.3828125 0.53125)" xlink:href="#Cmmi10-bd"/>
      <use transform="translate(1469.09179688 0.53125)" xlink:href="#LiberationSans-20"/>
     </g>
    </g>
   </g>
   <g id="PolyCollection_1">
    <defs>
     <path d="M 42.8 -257.401071 
L 42.8 -37.9725 
L 60.421053 -37.9725 
L 78.042105 -37.9725 
L 95.663158 -37.9725 
L 113.284211 -37.9725 
L 130.905263 -37.9725 
L 148.526316 -37.9725 
L 166.147368 -37.9725 
L 183.768421 -37.9725 
L 201.389474 -37.9725 
L 219.010526 -37.9725 
L 236.631579 -37.9725 
L 254.252632 -37.9725 
L 271.873684 -37.9725 
L 289.494737 -37.9725 
L 307.115789 -37.9725 
L 324.736842 -37.9725 
L 342.357895 -37.9725 
L 359.978947 -37.9725 
L 377.6 -37.9725 
L 377.6 -189.743145 
L 377.6 -189.743145 
L 359.978947 -193.213244 
L 342.357895 -197.821194 
L 324.736842 -202.077883 
L 307.115789 -206.419474 
L 289.494737 -211.057643 
L 271.873684 -215.729854 
L 254.252632 -220.152391 
L 236.631579 -224.686571 
L 219.010526 -229.340539 
L 201.389474 -233.638166 
L 183.768421 -237.909545 
L 166.147368 -241.890303 
L 148.526316 -245.617829 
L 130.905263 -248.818349 
L 113.284211 -251.804122 
L 95.663158 -254.130493 
L 78.042105 -255.930432 
L 60.421053 -257.023419 
L 42.8 -257.401071 
z
" id="m08a4a5ff12" style="stroke:#00441b;stroke-width:0.3;"/>
    </defs>
    <g clip-path="url(#p3897dc5558)">
     <use style="fill:#00441b;stroke:#00441b;stroke-width:0.3;" x="0.0" xlink:href="#m08a4a5ff12" y="271.9725"/>
    </g>
   </g>
   <g id="PolyCollection_2">
    <defs>
     <path d="M 42.8 -257.401071 
L 42.8 -37.9725 
L 60.421053 -37.9725 
L 78.042105 -37.9725 
L 95.663158 -37.9725 
L 113.284211 -37.9725 
L 130.905263 -37.9725 
L 148.526316 -37.9725 
L 166.147368 -37.9725 
L 183.768421 -37.9725 
L 201.389474 -37.9725 
L 219.010526 -37.9725 
L 236.631579 -37.9725 
L 254.252632 -37.9725 
L 271.873684 -37.9725 
L 289.494737 -37.9725 
L 307.115789 -37.9725 
L 324.736842 -37.9725 
L 342.357895 -37.9725 
L 359.978947 -37.9725 
L 377.6 -37.9725 
L 377.6 -163.211259 
L 377.6 -163.211259 
L 359.978947 -166.820832 
L 342.357895 -171.552718 
L 324.736842 -176.025996 
L 307.115789 -180.675258 
L 289.494737 -185.711687 
L 271.873684 -191.456143 
L 254.252632 -196.46545 
L 236.631579 -202.336032 
L 219.010526 -208.278138 
L 201.389474 -214.26333 
L 183.768421 -220.539111 
L 166.147368 -226.761338 
L 148.526316 -232.886141 
L 130.905263 -238.75845 
L 113.284211 -244.51525 
L 95.663158 -249.481476 
L 78.042105 -253.644405 
L 60.421053 -256.407576 
L 42.8 -257.401071 
z
" id="m46b238ecb9" style="stroke:#16542f;stroke-width:0.3;"/>
    </defs>
    <g clip-path="url(#p3897dc5558)">
     <use style="fill:#16542f;stroke:#16542f;stroke-width:0.3;" x="0.0" xlink:href="#m46b238ecb9" y="271.9725"/>
    </g>
   </g>
   <g id="PolyCollection_3">
    <defs>
     <path d="M 42.8 -257.401071 
L 42.8 -37.9725 
L 60.421053 -37.9725 
L 78.042105 -37.9725 
L 95.663158 -37.9725 
L 113.284211 -37.9725 
L 130.905263 -37.9725 
L 148.526316 -37.9725 
L 166.147368 -37.9725 
L 183.768421 -37.9725 
L 201.389474 -37.9725 
L 219.010526 -37.9725 
L 236.631579 -37.9725 
L 254.252632 -37.9725 
L 271.873684 -37.9725 
L 289.494737 -37.9725 
L 307.115789 -37.9725 
L 324.736842 -37.9725 
L 342.357895 -37.9725 
L 359.978947 -37.9725 
L 377.6 -37.9725 
L 377.6 -130.822604 
L 377.6 -130.822604 
L 359.978947 -133.939457 
L 342.357895 -137.970208 
L 324.736842 -142.118062 
L 307.115789 -146.100582 
L 289.494737 -150.76572 
L 271.873684 -156.397535 
L 254.252632 -161.161778 
L 236.631579 -167.433643 
L 219.010526 -173.427902 
L 201.389474 -180.124485 
L 183.768421 -187.652683 
L 166.147368 -195.279997 
L 148.526316 -203.950618 
L 130.905263 -212.906203 
L 113.284211 -222.831843 
L 95.663158 -233.118166 
L 78.042105 -243.529128 
L 60.421053 -252.876423 
L 42.8 -257.401071 
z
" id="m5c3b1d45fc" style="stroke:#2c6543;stroke-width:0.3;"/>
    </defs>
    <g clip-path="url(#p3897dc5558)">
     <use style="fill:#2c6543;stroke:#2c6543;stroke-width:0.3;" x="0.0" xlink:href="#m5c3b1d45fc" y="271.9725"/>
    </g>
   </g>
   <g id="PolyCollection_4">
    <defs>
     <path d="M 42.8 -257.401071 
L 42.8 -37.9725 
L 60.421053 -37.9725 
L 78.042105 -37.9725 
L 95.663158 -37.9725 
L 113.284211 -37.9725 
L 130.905263 -37.9725 
L 148.526316 -37.9725 
L 166.147368 -37.9725 
L 183.768421 -37.9725 
L 201.389474 -37.9725 
L 219.010526 -37.9725 
L 236.631579 -37.9725 
L 254.252632 -37.9725 
L 271.873684 -37.9725 
L 289.494737 -37.9725 
L 307.115789 -37.9725 
L 324.736842 -37.9725 
L 342.357895 -37.9725 
L 359.978947 -37.9725 
L 377.6 -37.9725 
L 377.6 -104.715087 
L 377.6 -104.715087 
L 359.978947 -107.100741 
L 342.357895 -110.131409 
L 324.736842 -113.314639 
L 307.115789 -116.158047 
L 289.494737 -119.963998 
L 271.873684 -124.779484 
L 254.252632 -128.638491 
L 236.631579 -133.993673 
L 219.010526 -139.257352 
L 201.389474 -145.271696 
L 183.768421 -152.13757 
L 166.147368 -159.623036 
L 148.526316 -168.469098 
L 130.905263 -178.127574 
L 113.284211 -190.229375 
L 95.663158 -204.143212 
L 78.042105 -221.125621 
L 60.421053 -241.388041 
L 42.8 -257.401071 
z
" id="mc12f7dda82" style="stroke:#437658;stroke-width:0.3;"/>
    </defs>
    <g clip-path="url(#p3897dc5558)">
     <use style="fill:#437658;stroke:#437658;stroke-width:0.3;" x="0.0" xlink:href="#mc12f7dda82" y="271.9725"/>
    </g>
   </g>
   <g id="PolyCollection_5">
    <defs>
     <path d="M 42.8 -257.401071 
L 42.8 -37.9725 
L 60.421053 -37.9725 
L 78.042105 -37.9725 
L 95.663158 -37.9725 
L 113.284211 -37.9725 
L 130.905263 -37.9725 
L 148.526316 -37.9725 
L 166.147368 -37.9725 
L 183.768421 -37.9725 
L 201.389474 -37.9725 
L 219.010526 -37.9725 
L 236.631579 -37.9725 
L 254.252632 -37.9725 
L 271.873684 -37.9725 
L 289.494737 -37.9725 
L 307.115789 -37.9725 
L 324.736842 -37.9725 
L 342.357895 -37.9725 
L 359.978947 -37.9725 
L 377.6 -37.9725 
L 377.6 -84.935359 
L 377.6 -84.935359 
L 359.978947 -86.481574 
L 342.357895 -88.836457 
L 324.736842 -91.205103 
L 307.115789 -93.09934 
L 289.494737 -96.21975 
L 271.873684 -99.558574 
L 254.252632 -102.413558 
L 236.631579 -107.249412 
L 219.010526 -110.707744 
L 201.389474 -115.451326 
L 183.768421 -121.160676 
L 166.147368 -127.571139 
L 148.526316 -135.079363 
L 130.905263 -143.625138 
L 113.284211 -155.202372 
L 95.663158 -168.84756 
L 78.042105 -188.594206 
L 60.421053 -218.090423 
L 42.8 -257.401071 
z
" id="m1340f1205c" style="stroke:#59866c;stroke-width:0.3;"/>
    </defs>
    <g clip-path="url(#p3897dc5558)">
     <use style="fill:#59866c;stroke:#59866c;stroke-width:0.3;" x="0.0" xlink:href="#m1340f1205c" y="271.9725"/>
    </g>
   </g>
   <g id="PolyCollection_6">
    <defs>
     <path d="M 42.8 -257.401071 
L 42.8 -37.9725 
L 60.421053 -37.9725 
L 78.042105 -37.9725 
L 95.663158 -37.9725 
L 113.284211 -37.9725 
L 130.905263 -37.9725 
L 148.526316 -37.9725 
L 166.147368 -37.9725 
L 183.768421 -37.9725 
L 201.389474 -37.9725 
L 219.010526 -37.9725 
L 236.631579 -37.9725 
L 254.252632 -37.9725 
L 271.873684 -37.9725 
L 289.494737 -37.9725 
L 307.115789 -37.9725 
L 324.736842 -37.9725 
L 342.357895 -37.9725 
L 359.978947 -37.9725 
L 377.6 -37.9725 
L 377.6 -70.747929 
L 377.6 -70.747929 
L 359.978947 -71.822389 
L 342.357895 -73.568715 
L 324.736842 -74.89131 
L 307.115789 -76.891684 
L 289.494737 -79.343194 
L 271.873684 -81.888463 
L 254.252632 -83.555455 
L 236.631579 -87.010253 
L 219.010526 -89.806439 
L 201.389474 -92.701405 
L 183.768421 -97.604613 
L 166.147368 -102.088127 
L 148.526316 -107.998307 
L 130.905263 -115.13189 
L 113.284211 -124.326388 
L 95.663158 -135.587293 
L 78.042105 -154.091261 
L 60.421053 -185.885974 
L 42.8 -257.401071 
z
" id="m6a998a0052" style="stroke:#709781;stroke-width:0.3;"/>
    </defs>
    <g clip-path="url(#p3897dc5558)">
     <use style="fill:#709781;stroke:#709781;stroke-width:0.3;" x="0.0" xlink:href="#m6a998a0052" y="271.9725"/>
    </g>
   </g>
   <g id="PolyCollection_7">
    <defs>
     <path d="M 42.8 -257.401071 
L 42.8 -37.9725 
L 60.421053 -37.9725 
L 78.042105 -37.9725 
L 95.663158 -37.9725 
L 113.284211 -37.9725 
L 130.905263 -37.9725 
L 148.526316 -37.9725 
L 166.147368 -37.9725 
L 183.768421 -37.9725 
L 201.389474 -37.9725 
L 219.010526 -37.9725 
L 236.631579 -37.9725 
L 254.252632 -37.9725 
L 271.873684 -37.9725 
L 289.494737 -37.9725 
L 307.115789 -37.9725 
L 324.736842 -37.9725 
L 342.357895 -37.9725 
L 359.978947 -37.9725 
L 377.6 -37.9725 
L 377.6 -60.836388 
L 377.6 -60.836388 
L 359.978947 -61.856318 
L 342.357895 -62.755703 
L 324.736842 -63.558905 
L 307.115789 -64.77254 
L 289.494737 -66.708401 
L 271.873684 -68.641536 
L 254.252632 -69.800625 
L 236.631579 -72.284615 
L 219.010526 -74.172638 
L 201.389474 -76.459547 
L 183.768421 -79.791494 
L 166.147368 -83.199381 
L 148.526316 -87.232178 
L 130.905263 -92.976621 
L 113.284211 -100.061045 
L 95.663158 -108.236622 
L 78.042105 -123.476152 
L 60.421053 -151.766842 
L 42.8 -257.401071 
z
" id="mf0714edc90" style="stroke:#86a895;stroke-width:0.3;"/>
    </defs>
    <g clip-path="url(#p3897dc5558)">
     <use style="fill:#86a895;stroke:#86a895;stroke-width:0.3;" x="0.0" xlink:href="#mf0714edc90" y="271.9725"/>
    </g>
   </g>
   <g id="PolyCollection_8">
    <defs>
     <path d="M 42.8 -257.401071 
L 42.8 -37.9725 
L 60.421053 -37.9725 
L 78.042105 -37.9725 
L 95.663158 -37.9725 
L 113.284211 -37.9725 
L 130.905263 -37.9725 
L 148.526316 -37.9725 
L 166.147368 -37.9725 
L 183.768421 -37.9725 
L 201.389474 -37.9725 
L 219.010526 -37.9725 
L 236.631579 -37.9725 
L 254.252632 -37.9725 
L 271.873684 -37.9725 
L 289.494737 -37.9725 
L 307.115789 -37.9725 
L 324.736842 -37.9725 
L 342.357895 -37.9725 
L 359.978947 -37.9725 
L 377.6 -37.9725 
L 377.6 -53.937703 
L 377.6 -53.937703 
L 359.978947 -54.736976 
L 342.357895 -54.919804 
L 324.736842 -55.850683 
L 307.115789 -57.045594 
L 289.494737 -57.887349 
L 271.873684 -59.281946 
L 254.252632 -60.364095 
L 236.631579 -62.091199 
L 219.010526 -63.293529 
L 201.389474 -64.913289 
L 183.768421 -67.440667 
L 166.147368 -70.117524 
L 148.526316 -72.730655 
L 130.905263 -76.777604 
L 113.284211 -81.919202 
L 95.663158 -87.880492 
L 78.042105 -99.449715 
L 60.421053 -121.793329 
L 42.8 -257.401071 
z
" id="mf95a8dfb54" style="stroke:#9db8aa;stroke-width:0.3;"/>
    </defs>
    <g clip-path="url(#p3897dc5558)">
     <use style="fill:#9db8aa;stroke:#9db8aa;stroke-width:0.3;" x="0.0" xlink:href="#mf95a8dfb54" y="271.9725"/>
    </g>
   </g>
   <g id="PolyCollection_9">
    <defs>
     <path d="M 42.8 -257.401071 
L 42.8 -37.9725 
L 60.421053 -37.9725 
L 78.042105 -37.9725 
L 95.663158 -37.9725 
L 113.284211 -37.9725 
L 130.905263 -37.9725 
L 148.526316 -37.9725 
L 166.147368 -37.9725 
L 183.768421 -37.9725 
L 201.389474 -37.9725 
L 219.010526 -37.9725 
L 236.631579 -37.9725 
L 254.252632 -37.9725 
L 271.873684 -37.9725 
L 289.494737 -37.9725 
L 307.115789 -37.9725 
L 324.736842 -37.9725 
L 342.357895 -37.9725 
L 359.978947 -37.9725 
L 377.6 -37.9725 
L 377.6 -49.172864 
L 377.6 -49.172864 
L 359.978947 -49.827966 
L 342.357895 -49.507023 
L 324.736842 -50.256594 
L 307.115789 -51.390393 
L 289.494737 -52.112749 
L 271.873684 -52.936204 
L 254.252632 -53.158495 
L 236.631579 -54.735677 
L 219.010526 -55.538303 
L 201.389474 -56.59082 
L 183.768421 -58.606502 
L 166.147368 -60.322089 
L 148.526316 -61.718372 
L 130.905263 -65.122803 
L 113.284211 -68.441509 
L 95.663158 -72.729942 
L 78.042105 -81.229247 
L 60.421053 -98.111875 
L 42.8 -257.401071 
z
" id="m6f14f000d2" style="stroke:#b3c9be;stroke-width:0.3;"/>
    </defs>
    <g clip-path="url(#p3897dc5558)">
     <use style="fill:#b3c9be;stroke:#b3c9be;stroke-width:0.3;" x="0.0" xlink:href="#m6f14f000d2" y="271.9725"/>
    </g>
   </g>
   <g id="line2d_27">
    <path clip-path="url(#p3897dc5558)" d="M 42.8 14.571429 
L 60.421053 14.949081 
L 78.042105 16.042068 
L 95.663158 17.842007 
L 113.284211 20.168378 
L 130.905263 23.154151 
L 148.526316 26.354671 
L 166.147368 30.082197 
L 183.768421 34.062955 
L 201.389474 38.334334 
L 219.010526 42.631961 
L 236.631579 47.285929 
L 254.252632 51.820109 
L 271.873684 56.242646 
L 289.494737 60.914857 
L 307.115789 65.553026 
L 324.736842 69.894617 
L 342.357895 74.151306 
L 359.978947 78.759256 
L 377.6 82.229355 
" style="fill:none;opacity:0.1;stroke:#ffffff;stroke-linecap:round;"/>
   </g>
   <g id="line2d_28">
    <path clip-path="url(#p3897dc5558)" d="M 42.8 14.571429 
L 60.421053 15.564924 
L 78.042105 18.328095 
L 95.663158 22.491024 
L 113.284211 27.45725 
L 130.905263 33.21405 
L 148.526316 39.086359 
L 166.147368 45.211162 
L 183.768421 51.433389 
L 201.389474 57.70917 
L 219.010526 63.694362 
L 236.631579 69.636468 
L 254.252632 75.50705 
L 271.873684 80.516357 
L 289.494737 86.260813 
L 307.115789 91.297242 
L 324.736842 95.946504 
L 342.357895 100.419782 
L 359.978947 105.151668 
L 377.6 108.761241 
" style="fill:none;opacity:0.1;stroke:#ffffff;stroke-linecap:round;"/>
   </g>
   <g id="line2d_29">
    <path clip-path="url(#p3897dc5558)" d="M 42.8 14.571429 
L 60.421053 19.096077 
L 78.042105 28.443372 
L 95.663158 38.854334 
L 113.284211 49.140657 
L 130.905263 59.066297 
L 148.526316 68.021882 
L 166.147368 76.692503 
L 183.768421 84.319817 
L 201.389474 91.848015 
L 219.010526 98.544598 
L 236.631579 104.538857 
L 254.252632 110.810722 
L 271.873684 115.574965 
L 289.494737 121.20678 
L 307.115789 125.871918 
L 324.736842 129.854438 
L 342.357895 134.002292 
L 359.978947 138.033043 
L 377.6 141.149896 
" style="fill:none;opacity:0.1;stroke:#ffffff;stroke-linecap:round;"/>
   </g>
   <g id="line2d_30">
    <path clip-path="url(#p3897dc5558)" d="M 42.8 14.571429 
L 60.421053 30.584459 
L 78.042105 50.846879 
L 95.663158 67.829288 
L 113.284211 81.743125 
L 130.905263 93.844926 
L 148.526316 103.503402 
L 166.147368 112.349464 
L 183.768421 119.83493 
L 201.389474 126.700804 
L 219.010526 132.715148 
L 236.631579 137.978827 
L 254.252632 143.334009 
L 271.873684 147.193016 
L 289.494737 152.008502 
L 307.115789 155.814453 
L 324.736842 158.657861 
L 342.357895 161.841091 
L 359.978947 164.871759 
L 377.6 167.257413 
" style="fill:none;opacity:0.1;stroke:#ffffff;stroke-linecap:round;"/>
   </g>
   <g id="line2d_31">
    <path clip-path="url(#p3897dc5558)" d="M 42.8 14.571429 
L 60.421053 53.882077 
L 78.042105 83.378294 
L 95.663158 103.12494 
L 113.284211 116.770128 
L 130.905263 128.347362 
L 148.526316 136.893137 
L 166.147368 144.401361 
L 183.768421 150.811824 
L 201.389474 156.521174 
L 219.010526 161.264756 
L 236.631579 164.723088 
L 254.252632 169.558942 
L 271.873684 172.413926 
L 289.494737 175.75275 
L 307.115789 178.87316 
L 324.736842 180.767397 
L 342.357895 183.136043 
L 359.978947 185.490926 
L 377.6 187.037141 
" style="fill:none;opacity:0.1;stroke:#ffffff;stroke-linecap:round;"/>
   </g>
   <g id="line2d_32">
    <path clip-path="url(#p3897dc5558)" d="M 42.8 14.571429 
L 60.421053 86.086526 
L 78.042105 117.881239 
L 95.663158 136.385207 
L 113.284211 147.646112 
L 130.905263 156.84061 
L 148.526316 163.974193 
L 166.147368 169.884373 
L 183.768421 174.367887 
L 201.389474 179.271095 
L 219.010526 182.166061 
L 236.631579 184.962247 
L 254.252632 188.417045 
L 271.873684 190.084037 
L 289.494737 192.629306 
L 307.115789 195.080816 
L 324.736842 197.08119 
L 342.357895 198.403785 
L 359.978947 200.150111 
L 377.6 201.224571 
" style="fill:none;opacity:0.1;stroke:#ffffff;stroke-linecap:round;"/>
   </g>
   <g id="line2d_33">
    <path clip-path="url(#p3897dc5558)" d="M 42.8 14.571429 
L 60.421053 120.205658 
L 78.042105 148.496348 
L 95.663158 163.735878 
L 113.284211 171.911455 
L 130.905263 178.995879 
L 148.526316 184.740322 
L 166.147368 188.773119 
L 183.768421 192.181006 
L 201.389474 195.512953 
L 219.010526 197.799862 
L 236.631579 199.687885 
L 254.252632 202.171875 
L 271.873684 203.330964 
L 289.494737 205.264099 
L 307.115789 207.19996 
L 324.736842 208.413595 
L 342.357895 209.216797 
L 359.978947 210.116182 
L 377.6 211.136112 
" style="fill:none;opacity:0.1;stroke:#ffffff;stroke-linecap:round;"/>
   </g>
   <g id="line2d_34">
    <path clip-path="url(#p3897dc5558)" d="M 42.8 14.571429 
L 60.421053 150.179171 
L 78.042105 172.522785 
L 95.663158 184.092008 
L 113.284211 190.053298 
L 130.905263 195.194896 
L 148.526316 199.241845 
L 166.147368 201.854976 
L 183.768421 204.531833 
L 201.389474 207.059211 
L 219.010526 208.678971 
L 236.631579 209.881301 
L 254.252632 211.608405 
L 271.873684 212.690554 
L 289.494737 214.085151 
L 307.115789 214.926906 
L 324.736842 216.121817 
L 342.357895 217.052696 
L 359.978947 217.235524 
L 377.6 218.034797 
" style="fill:none;opacity:0.1;stroke:#ffffff;stroke-linecap:round;"/>
   </g>
   <g id="line2d_35">
    <path clip-path="url(#p3897dc5558)" d="M 42.8 14.571429 
L 60.421053 173.860625 
L 78.042105 190.743253 
L 95.663158 199.242558 
L 113.284211 203.530991 
L 130.905263 206.849697 
L 148.526316 210.254128 
L 166.147368 211.650411 
L 183.768421 213.365998 
L 201.389474 215.38168 
L 219.010526 216.434197 
L 236.631579 217.236823 
L 254.252632 218.814005 
L 271.873684 219.036296 
L 289.494737 219.859751 
L 307.115789 220.582107 
L 324.736842 221.715906 
L 342.357895 222.465477 
L 359.978947 222.144534 
L 377.6 222.799636 
" style="fill:none;opacity:0.1;stroke:#ffffff;stroke-linecap:round;"/>
   </g>
   <g id="patch_3">
    <path d="M 42.8 234 
L 377.6 234 
" style="fill:none;stroke:#262626;stroke-linecap:square;stroke-linejoin:miter;stroke-width:1.25;"/>
   </g>
   <g id="patch_4">
    <path d="M 42.8 234 
L 42.8 3.6 
" style="fill:none;stroke:#262626;stroke-linecap:square;stroke-linejoin:miter;stroke-width:1.25;"/>
   </g>
   <g id="text_29">
    <!-- 1, 2, 3 -->
    <defs>
     <path d="M 18.796875 10.6875 
L 18.796875 2.484375 
Q 18.796875 -0.09375 18.578125 -2.21875 
Q 18.359375 -4.34375 17.875 -6.171875 
Q 17.390625 -8.015625 16.671875 -9.625 
Q 15.96875 -11.234375 14.984375 -12.796875 
L 8.984375 -12.796875 
Q 11.1875 -9.625 12.375 -6.390625 
Q 13.578125 -3.171875 13.578125 0 
L 9.28125 0 
L 9.28125 10.6875 
z
" id="LiberationSans-2c"/>
    </defs>
    <g style="fill:#ffffff;" transform="translate(212.161291118 57.7738232143)scale(0.1 -0.1)">
     <use xlink:href="#LiberationSans-31"/>
     <use x="55.615234375" xlink:href="#LiberationSans-2c"/>
     <use x="83.3984375" xlink:href="#LiberationSans-20"/>
     <use x="111.181640625" xlink:href="#LiberationSans-32"/>
     <use x="166.796875" xlink:href="#LiberationSans-2c"/>
     <use x="194.580078125" xlink:href="#LiberationSans-20"/>
     <use x="222.36328125" xlink:href="#LiberationSans-33"/>
    </g>
   </g>
   <g id="text_30">
    <!-- 4 -->
    <g style="fill:#ffffff;" transform="translate(203.014268092 77.2981610663)scale(0.1 -0.1)">
     <use xlink:href="#LiberationSans-34"/>
    </g>
   </g>
   <g id="text_31">
    <!-- 5 -->
    <g style="fill:#ffffff;" transform="translate(177.463741776 101.915804445)scale(0.1 -0.1)">
     <use xlink:href="#LiberationSans-35"/>
    </g>
   </g>
   <g id="text_32">
    <!-- 6 -->
    <g style="fill:#ffffff;" transform="translate(154.556373355 123.98679506)scale(0.1 -0.1)">
     <use xlink:href="#LiberationSans-36"/>
    </g>
   </g>
   <g id="text_33">
    <!-- 7 -->
    <g style="fill:#ffffff;" transform="translate(131.649004934 146.057785675)scale(0.1 -0.1)">
     <use xlink:href="#LiberationSans-37"/>
    </g>
   </g>
   <g id="text_34">
    <!-- 8 -->
    <g transform="translate(112.265847039 164.733239273)scale(0.1 -0.1)">
     <use xlink:href="#LiberationSans-38"/>
    </g>
   </g>
   <g id="text_35">
    <!-- 9 -->
    <g transform="translate(97.6403733553 178.824717896)scale(0.1 -0.1)">
     <use xlink:href="#LiberationSans-39"/>
    </g>
   </g>
   <g id="text_36">
    <!-- 10 -->
    <g transform="translate(83.0537993421 190.199766906)scale(0.1 -0.1)">
     <use xlink:href="#LiberationSans-31"/>
     <use x="55.615234375" xlink:href="#LiberationSans-30"/>
    </g>
   </g>
   <g id="text_37">
    <!-- 11 -->
    <g transform="translate(60.1464309211 212.270757521)scale(0.1 -0.1)">
     <use xlink:href="#LiberationSans-31"/>
     <use x="55.615234375" xlink:href="#LiberationSans-31"/>
    </g>
   </g>
  </g>
 </g>
 <defs>
  <clipPath id="p3897dc5558">
   <rect height="230.4" width="334.8" x="42.8" y="3.6"/>
  </clipPath>
 </defs>
</svg>
