<?xml version="1.0" encoding="UTF-8" standalone="no"?>
<!-- Created with Inkscape (http://www.inkscape.org/) -->

<svg
   xmlns:dc="http://purl.org/dc/elements/1.1/"
   xmlns:cc="http://creativecommons.org/ns#"
   xmlns:rdf="http://www.w3.org/1999/02/22-rdf-syntax-ns#"
   xmlns:svg="http://www.w3.org/2000/svg"
   xmlns="http://www.w3.org/2000/svg"
   xmlns:sodipodi="http://sodipodi.sourceforge.net/DTD/sodipodi-0.dtd"
   xmlns:inkscape="http://www.inkscape.org/namespaces/inkscape"
   width="47.96875"
   height="28"
   id="svg2"
   version="1.1"
   inkscape:version="0.48.4 r9939"
   sodipodi:docname="New document 1">
  <defs
     id="defs4" />
  <sodipodi:namedview
     id="base"
     pagecolor="#ffffff"
     bordercolor="#666666"
     borderopacity="1.0"
     inkscape:pageopacity="0.0"
     inkscape:pageshadow="2"
     inkscape:zoom="4.6172339"
     inkscape:cx="51.19501"
     inkscape:cy="18.44045"
     inkscape:document-units="px"
     inkscape:current-layer="text2985"
     showgrid="false"
     fit-margin-top="0"
     fit-margin-left="0"
     fit-margin-right="0"
     fit-margin-bottom="0"
     inkscape:window-width="753"
     inkscape:window-height="637"
     inkscape:window-x="2374"
     inkscape:window-y="169"
     inkscape:window-maximized="0" />
  <metadata
     id="metadata7">
    <rdf:RDF>
      <cc:Work
         rdf:about="">
        <dc:format>image/svg+xml</dc:format>
        <dc:type
           rdf:resource="http://purl.org/dc/dcmitype/StillImage" />
        <dc:title></dc:title>
      </cc:Work>
    </rdf:RDF>
  </metadata>
  <g
     inkscape:label="Layer 1"
     inkscape:groupmode="layer"
     id="layer1"
     transform="translate(-400,-440.93362)">
    <g
       style="font-size:40px;font-style:normal;font-variant:normal;font-weight:normal;font-stretch:normal;line-height:125%;letter-spacing:0px;word-spacing:0px;fill:#000000;fill-opacity:1;stroke:none;font-family:IPAexGothic;-inkscape-font-specification:IPAexGothic"
       id="text2985">
      <path
         d="m 428,456.93362 -4,0 0,4 -12,0 0,-16 -4,0 0,16 -8,0 0,-20 16,0 0,4 4,0 0,12 4,0 0,-4 4,0 0,4"
         style="font-family:superscript;-inkscape-font-specification:superscript"
         id="path2990"
         inkscape:connector-curvature="0" />
      <path
         d="m 444.36875,456.93362 0,4 -8.4,0 0,8 -8,0 0,-24 4,0 0,-4 12.4,0 0,4 3.6,0 0,12.0338 m -7.99998,-0.0338 0,-12 -4,0 0,12 4,0"
         style="font-family:superscript;-inkscape-font-specification:superscript"
         id="path2992"
         inkscape:connector-curvature="0"
         sodipodi:nodetypes="ccccccccccccccccc" />
    </g>
  </g>
</svg>
