<?xml version="1.0" standalone="no"?>
<!DOCTYPE svg PUBLIC "-//W3C//DTD SVG 20010904//EN"
 "http://www.w3.org/TR/2001/REC-SVG-20010904/DTD/svg10.dtd">
<svg version="1.0" xmlns="http://www.w3.org/2000/svg"
 width="700.000000pt" height="700.000000pt" viewBox="0 0 700.000000 700.000000"
 preserveAspectRatio="xMidYMid meet">
<metadata>
Created by potrace 1.11, written by Peter Selinger 2001-2013
</metadata>
<g transform="translate(0.000000,700.000000) scale(0.100000,-0.100000)"
fill="#000000" stroke="none">
<path d="M0 3500 l0 -1460 585 0 585 0 0 1170 0 1170 290 0 290 0 0 -1170 0
-1170 875 0 875 0 0 295 0 295 290 0 290 0 0 -875 0 -875 585 0 585 0 0 580 0
580 610 0 610 0 2 293 3 292 263 -4 262 -4 0 882 0 881 -265 0 -265 0 0 290 0
290 -900 0 -900 0 0 -290 0 -290 -295 0 -295 0 0 -585 0 -585 -290 0 -290 0 0
-290 0 -290 -290 0 -290 0 0 875 0 875 -295 0 -295 0 0 290 0 290 -1165 0
-1165 0 0 -1460z m5830 5 l0 -875 -290 0 -290 0 0 875 0 875 290 0 290 0 0
-875z"/>
</g>
</svg>
